<svg xmlns="http://www.w3.org/2000/svg" xmlns:xlink="http://www.w3.org/1999/xlink" width="278" height="8" viewBox="0 0 278 8"><defs><path id="adc5a" d="M409 4887a4 4 0 1 1 0 8 4 4 0 0 1 0-8zm18 0a4 4 0 1 1 0 8 4 4 0 0 1 0-8zm18 0a4 4 0 1 1 0 8 4 4 0 0 1 0-8zm18 0a4 4 0 1 1 0 8 4 4 0 0 1 0-8zm18 0a4 4 0 1 1 0 8 4 4 0 0 1 0-8zm18 0a4 4 0 1 1 0 8 4 4 0 0 1 0-8zm18 0a4 4 0 1 1 0 8 4 4 0 0 1 0-8zm18 0a4 4 0 1 1 0 8 4 4 0 0 1 0-8zm18 0a4 4 0 1 1 0 8 4 4 0 0 1 0-8zm18 0a4 4 0 1 1 0 8 4 4 0 0 1 0-8zm18 0a4 4 0 1 1 0 8 4 4 0 0 1 0-8zm18 0a4 4 0 1 1 0 8 4 4 0 0 1 0-8zm18 0a4 4 0 1 1 0 8 4 4 0 0 1 0-8zm18 0a4 4 0 1 1 0 8 4 4 0 0 1 0-8z"/><path id="adc5b" d="M661 4887a4 4 0 1 1 0 8 4 4 0 0 1 0-8zm18 0a4 4 0 1 1 0 8 4 4 0 0 1 0-8z"/></defs><g><g opacity=".17" transform="translate(-405 -4887)"><use fill="#bdbec0" xlink:href="#adc5a"/></g><g opacity=".17" transform="translate(-405 -4887)"><use fill="#bdbec0" xlink:href="#adc5b"/></g></g></svg>