<svg xmlns="http://www.w3.org/2000/svg" xmlns:xlink="http://www.w3.org/1999/xlink" width="16" height="12" viewBox="0 0 16 12"><defs><path id="8833a" d="M1300 896h12a2 2 0 0 1 2 2v8a2 2 0 0 1-2 2h-12a2 2 0 0 1-2-2v-8c0-1.1.9-2 2-2zm0 3v6a1 1 0 0 0 1 1h10a1 1 0 0 0 1-1v-6a1 1 0 0 0-1-1h-10a1 1 0 0 0-1 1zm2.5.5l3.5 3.5 3.5-3.5 1 1-1.5 1.5 1.5 1.5-1 1-1.5-1.5-2 1.5-2-1.5-1.5 1.5-1-1 1.5-1.5-1.5-1.5z"/></defs><g><g transform="translate(-1298 -896)"><use fill="#b3b3b3" xlink:href="#8833a"/></g></g></svg>