<svg xmlns="http://www.w3.org/2000/svg" xmlns:xlink="http://www.w3.org/1999/xlink" width="19" height="19" viewBox="0 0 19 19"><defs><path id="vx1ja" d="M1307.88 824.6a3.64 3.64 0 0 0-3.63-3.6l-.27.01h-.05c-.11 0-.2.02-.3.04-.23.05-.46-.1-.5-.34-.05-.22.11-.45.35-.5.12 0 .25-.03.38-.04.14-.02.27-.02.4-.02a4.57 4.57 0 0 1 4.2 2.98c.16.49.25 1 .25 1.52v.2l-.01.2a.44.44 0 0 1-.47.39.44.44 0 0 1-.4-.47c.02-.07.02-.13.05-.18v-.2zm2.44.2v-.17a6.11 6.11 0 0 0-1.79-4.28 6 6 0 0 0-4.3-1.77l-.52.01-.16.02-.36.06c-.22.05-.45-.11-.49-.35-.05-.21.1-.45.34-.49l.6-.07c.2-.02.4-.02.6-.02.18 0 .37 0 .56.02a6.87 6.87 0 0 1 6.36 6.9c0 .2 0 .4-.03.6a.44.44 0 0 1-.47.4.44.44 0 0 1-.4-.47c0-.13.02-.24.06-.38zm3.3-.14l-.03.8a.44.44 0 0 1-.47.4.44.44 0 0 1-.4-.47l.02-.35v-.4a8.5 8.5 0 0 0-8.52-8.52c-.26 0-.49.02-.74.03-.13 0-.26.02-.38.04l-.36.06c-.22.05-.45-.11-.5-.35-.04-.21.12-.45.35-.49.27-.05.54-.09.81-.1.28-.02.55-.04.82-.04a9.37 9.37 0 0 1 9.4 9.4zm-2.32 8.15c-5.53 3.02-15.44-6.12-16.24-11.78-.3-2.3 3.43-7.2 4.77-4.13l1.43 3.2c.66 1.78-1.4 2.25-1.36 3.19.02.61 1.57 2.51 1.93 2.9.76.84 3.1 2.66 4.34 2.97.6.15 1.1-.61 1.37-.9 1.12-1.2 1.16-1.57 2.22-1l3.2 1.72c1.22.74-.44 3.14-1.66 3.83z"/></defs><g><g transform="translate(-1295 -815)"><use fill="#b6b6b7" xlink:href="#vx1ja"/></g></g></svg>