<svg xmlns="http://www.w3.org/2000/svg" xmlns:xlink="http://www.w3.org/1999/xlink" width="31.09" height="24.41" viewBox="0 0 31.09 24.41">
  <path class="cls-1" d="M1167.42,6224a16.8,16.8,0,0,1-8.64-2.42l-1.88-1.12,2.19,0.03a3.143,3.143,0,0,0,.36.01,13.147,13.147,0,0,0,6.22-1.67,6.72,6.72,0,0,1-4.44-4.26l-0.34-1.03,0.94,0.25a6.642,6.642,0,0,1-2.6-4.93l-0.06-.95,0.88,0.39a3.943,3.943,0,0,0,.48.18,6.634,6.634,0,0,1-.43-7.25l0.44-.79,0.54,0.71a14.807,14.807,0,0,0,10.74,5.74c-0.03-.27-0.04-0.51-0.04-0.58a6.331,6.331,0,0,1,6.39-6.4,6.425,6.425,0,0,1,4.49,1.84,12.31,12.31,0,0,0,3.14-1.31l1.38-.86-0.52,1.54a6.3,6.3,0,0,1-1.12,2.01,7.172,7.172,0,0,0,.8-0.3l1.66-.81-0.7,1.5a6.413,6.413,0,0,1-2.73,2.91,17.065,17.065,0,0,1-4.46,12.05,16.614,16.614,0,0,1-12.58,5.52h-0.11Zm-6.16-2.46a15.43,15.43,0,0,0,6.16,1.29h0.1a15.471,15.471,0,0,0,11.72-5.14,15.716,15.716,0,0,0,4.13-11.55l-0.04-.41,0.38-.17a5.516,5.516,0,0,0,1.57-1.13,13.342,13.342,0,0,1-1.65.29l-0.45.05-0.35-.88,0.41-.32a5.166,5.166,0,0,0,1.47-1.28,10.715,10.715,0,0,1-2.14.68l-0.32.06-0.22-.24a5.217,5.217,0,0,0-9.08,3.51c0,0.16.08,0.87,0.1,1.05l0.27,0.76-0.85-.02a15.942,15.942,0,0,1-11.71-5.49,5.618,5.618,0,0,0,1.73,6.27l1.38,1.08-1.75-.03a6.568,6.568,0,0,1-1.6-.22,5.486,5.486,0,0,0,4.2,4.16l2.31,0.5-2.28.64a4.932,4.932,0,0,1-1.33.17q-0.345,0-.66-0.03a5.527,5.527,0,0,0,4.51,2.78l1.65,0.08-1.33.98A13.969,13.969,0,0,1,1161.26,6221.54Z" transform="translate(-1156.91 -6199.59)"/>
</svg>
