<svg xmlns="http://www.w3.org/2000/svg" xmlns:xlink="http://www.w3.org/1999/xlink" width="12.25" height="24" viewBox="0 0 12.25 24">
  <path class="cls-1" d="M1077.77,6224h-5.17v-10.76h-2.84v-4.95h2.84v-2.77c0-2.55,1.6-5.53,6.09-5.53a22.3,22.3,0,0,1,2.8.16l0.48,0.06-0.12,4.63-0.53-.01s-1.18-.01-2.47-0.01c-0.95,0-1.08.24-1.08,1.18v2.29H1082l-0.23,4.95h-4V6224h0Zm-4.1-1.07h3.03v-10.76h4.04l0.14-2.81h-4.18V6206c0-1.11.26-2.25,2.15-2.25,0.77,0,1.49.01,1.96,0.01l0.06-2.6c-0.47-.04-1.25-0.1-2.18-0.1-3.7,0-5.02,2.3-5.02,4.46v3.84h-2.85v2.81h2.85v10.76h0Z" transform="translate(-1069.75 -6200)"/>
</svg>
