<svg xmlns="http://www.w3.org/2000/svg" xmlns:xlink="http://www.w3.org/1999/xlink" width="33.6" height="24" viewBox="0 0 33.6 24">
  <path class="cls-1" d="M1120.18,6224h0c-3.81,0-7.97-.12-12.34-0.36a5.208,5.208,0,0,1-4.88-4.84,64.308,64.308,0,0,1,0-13.59,5.258,5.258,0,0,1,4.87-4.85,189.225,189.225,0,0,1,23.09,0,5.2,5.2,0,0,1,4.88,4.85,64.956,64.956,0,0,1,0,13.59,5.2,5.2,0,0,1-4.87,4.84C1127.61,6223.88,1124,6224,1120.18,6224Zm-0.89-22.7c-3.8,0-7.63.12-11.38,0.35a3.933,3.933,0,0,0-3.67,3.69,63.092,63.092,0,0,0,0,13.32,3.909,3.909,0,0,0,3.66,3.7c4.36,0.23,8.49.35,12.28,0.35s7.37-.12,10.66-0.35a3.958,3.958,0,0,0,3.68-3.69,64.43,64.43,0,0,0,0-13.32,3.942,3.942,0,0,0-3.67-3.7C1126.98,6201.41,1123.09,6201.3,1119.29,6201.3Zm-3.19,6.14v8.84l8.49-4.39Z" transform="translate(-1102.59 -6200)"/>
</svg>
