<svg xmlns="http://www.w3.org/2000/svg" xmlns:xlink="http://www.w3.org/1999/xlink" width="23.75" height="24.06" viewBox="0 0 23.75 24.06">
  
  <path class="cls-1" d="M1225.18,6210.66a8.087,8.087,0,0,0-1.98-.91c-0.73-.23-1.55-0.45-2.43-0.64-0.68-.15-1.18-0.28-1.48-0.36a3.834,3.834,0,0,1-.77-0.3,1.421,1.421,0,0,1-.48-0.35,0.462,0.462,0,0,1-.1-0.31,0.72,0.72,0,0,1,.44-0.6,2.9,2.9,0,0,1,1.59-.38,2.547,2.547,0,0,1,1.49.31,3.039,3.039,0,0,1,.84,1.05,3.772,3.772,0,0,0,.75.99,1.88,1.88,0,0,0,1.28.42,2.066,2.066,0,0,0,2.07-2.03,3.08,3.08,0,0,0-.4-1.48,4.23,4.23,0,0,0-1.19-1.35,6.033,6.033,0,0,0-1.95-.97,8.961,8.961,0,0,0-2.68-.36,9.832,9.832,0,0,0-3.36.53,5.061,5.061,0,0,0-2.33,1.63,4.049,4.049,0,0,0-.85,2.51,3.914,3.914,0,0,0,.82,2.5,5.1,5.1,0,0,0,2.06,1.51,16.255,16.255,0,0,0,2.94.88c0.8,0.17,1.45.33,1.93,0.48a2.576,2.576,0,0,1,.96.52,0.852,0.852,0,0,1,.25.65,1.043,1.043,0,0,1-.57.92,4.008,4.008,0,0,1-3.24.25,2.062,2.062,0,0,1-.72-0.54,5.1,5.1,0,0,1-.55-1,3.014,3.014,0,0,0-.78-1.12,1.958,1.958,0,0,0-1.29-.46,2.146,2.146,0,0,0-1.49.57,1.87,1.87,0,0,0-.61,1.4,3.953,3.953,0,0,0,.78,2.25,5.73,5.73,0,0,0,1.97,1.75,8.758,8.758,0,0,0,4.12.87,9.311,9.311,0,0,0,3.58-.63,5.5,5.5,0,0,0,2.43-1.85,4.667,4.667,0,0,0,.85-2.72,4.288,4.288,0,0,0-.51-2.16A4.157,4.157,0,0,0,1225.18,6210.66Zm0.2,5.75a4.447,4.447,0,0,1-1.98,1.49,8.228,8.228,0,0,1-3.18.55,7.731,7.731,0,0,1-3.63-.75,4.566,4.566,0,0,1-1.6-1.42,2.967,2.967,0,0,1-.6-1.66,0.828,0.828,0,0,1,.28-0.64,1.083,1.083,0,0,1,.78-0.28,0.925,0.925,0,0,1,.62.2,2.067,2.067,0,0,1,.49.74,5.671,5.671,0,0,0,.69,1.21,2.882,2.882,0,0,0,1.09.86,5,5,0,0,0,4.27-.33,2.071,2.071,0,0,0,1.03-1.78,1.855,1.855,0,0,0-.58-1.41,3.5,3.5,0,0,0-1.36-.75,20.782,20.782,0,0,0-2.03-.5,15.929,15.929,0,0,1-2.74-.82,4.212,4.212,0,0,1-1.66-1.21,2.887,2.887,0,0,1-.59-1.85,3.035,3.035,0,0,1,.63-1.87,4.072,4.072,0,0,1,1.87-1.29,8.708,8.708,0,0,1,3-.47,7.921,7.921,0,0,1,2.37.31,5,5,0,0,1,1.62.8,3.455,3.455,0,0,1,.92,1.03,2.125,2.125,0,0,1,.28.98,0.965,0.965,0,0,1-.3.69,1,1,0,0,1-.74.3,0.883,0.883,0,0,1-.59-0.16,2.877,2.877,0,0,1-.53-0.71,3.957,3.957,0,0,0-1.12-1.37,3.392,3.392,0,0,0-2.12-.53,3.907,3.907,0,0,0-2.16.55,1.753,1.753,0,0,0-.91,1.47,1.528,1.528,0,0,0,.34.97,2.486,2.486,0,0,0,.81.62,5.221,5.221,0,0,0,.97.37c0.3,0.09.81,0.21,1.53,0.38,0.85,0.18,1.64.39,2.34,0.61a7.536,7.536,0,0,1,1.73.79,3.179,3.179,0,0,1,1.05,1.11,3.3,3.3,0,0,1,.37,1.65A3.623,3.623,0,0,1,1225.38,6216.41Zm5.99-2.62a11.376,11.376,0,0,0-12.87-13.48,6.8,6.8,0,0,0-9.41,9.13,12.307,12.307,0,0,0-.19,2.09,11.361,11.361,0,0,0,11.35,11.35,10.91,10.91,0,0,0,1.9-.16,6.719,6.719,0,0,0,3.05.73,6.807,6.807,0,0,0,6.8-6.8A6.7,6.7,0,0,0,1231.37,6213.79Zm-6.17,8.62a5.724,5.724,0,0,1-2.72-.69l-0.16-.08-0.18.03a10.8,10.8,0,0,1-1.89.17,10.31,10.31,0,0,1-10.1-12.38l0.04-.2-0.1-.17a5.755,5.755,0,0,1,8.03-7.79l0.17,0.11,0.2-.04a10.2,10.2,0,0,1,1.76-.15,10.309,10.309,0,0,1,10.07,12.52l-0.04.18,0.08,0.17a5.667,5.667,0,0,1,.6,2.56A5.768,5.768,0,0,1,1225.2,6222.41Z" transform="translate(-1208.25 -6199.38)"/>
</svg>
