<svg xmlns="http://www.w3.org/2000/svg" xmlns:xlink="http://www.w3.org/1999/xlink" width="19" height="27" viewBox="0 0 19 27"><defs><path id="z68wa" d="M448.98 4300.14v21.2a2.8 2.8 0 0 1-2.8 2.78H432.8a2.8 2.8 0 0 1-2.79-2.78v-17.85c0-.15.06-.3.16-.4l5.59-5.58c.1-.1.24-.16.4-.16h10.04a2.8 2.8 0 0 1 2.8 2.8zm-1.12 0c0-.92-.75-1.67-1.67-1.67h-9.82l-5.25 5.25v17.62c0 .92.75 1.67 1.67 1.67h13.4c.92 0 1.67-.75 1.67-1.67zm-2.23 7.8v11.16c0 .93-.75 1.68-1.67 1.68h-8.94c-.92 0-1.67-.75-1.67-1.68v-5.56a.54.54 0 0 1 0-.02v-5.57c0-.92.75-1.67 1.67-1.67h8.94c.92 0 1.67.75 1.67 1.67zm-1.12 11.16v-5.02h-2.23v2.8a.56.56 0 0 1-1.11 0v-2.8h-3.35v2.8a.56.56 0 0 1-1.12 0v-2.8h-2.23v5.02c0 .31.25.56.55.56h3.91v-2.79a.56.56 0 0 1 1.12 0v2.8h3.9c.31 0 .56-.26.56-.57zm0-11.15c0-.3-.25-.56-.55-.56h-1.68v2.79a.56.56 0 0 1-1.11 0v-2.79h-3.35v2.79a.56.56 0 0 1-1.12 0v-2.79h-1.68c-.3 0-.55.25-.55.56v5.02h4.46v-2.79a.56.56 0 0 1 1.12 0v2.79h4.46z"/></defs><g><g transform="translate(-430 -4297)"><use xlink:href="#z68wa"/><use fill="#fff" xlink:href="#z68wa"/></g></g></svg>