<svg xmlns="http://www.w3.org/2000/svg" xmlns:xlink="http://www.w3.org/1999/xlink" width="31" height="18" viewBox="0 0 31 18" fill="#fff"><defs><path id="sfrta" d="M1025 3927.07c0 3.08-1.4 5.93-3.83 7.82a.5.5 0 0 1-.3.1h-11.57a.5.5 0 0 1-.3-.1c-.37-.28-.71-.59-1.03-.91-.4.36-.85.68-1.32.95a.5.5 0 0 1-.25.07h-7.43a.5.5 0 0 1-.25-.07 7.94 7.94 0 1 1 8.24-13.55 9.91 9.91 0 0 1 18.04 5.69zm-17.69 6.16a9.84 9.84 0 0 1-.87-11.01c-.98-.63-2.1-1-3.26-1.08v1.47a.5.5 0 1 1-1 0v-1.47a6.9 6.9 0 0 0-3.77 1.46l.96.95a.5.5 0 1 1-.7.7l-1-.99a6.92 6.92 0 0 0-1.86 3.8h1.42a.5.5 0 0 1 0 1h-1.49c0 1.46.47 2.86 1.3 4.02l1.13-1.14a.5.5 0 0 1 .7.7l-1.2 1.2c.42.45.9.84 1.44 1.17h3.08v-1.49a.5.5 0 1 1 1 0v1.49h3.07c.38-.23.73-.49 1.05-.78zm16.68-5.67h-1.97a.5.5 0 0 1 0-.99h1.97a8.88 8.88 0 0 0-2.26-5.45l-1.39 1.4a.5.5 0 0 1-.7 0 .5.5 0 0 1 0-.7l1.39-1.4a8.9 8.9 0 0 0-5.45-2.26v1.97a.5.5 0 0 1-1 0v-1.97a8.9 8.9 0 0 0-5.45 2.26l1.4 1.4a.5.5 0 1 1-.7.7l-1.4-1.4a8.88 8.88 0 0 0-2.26 5.45h1.97a.5.5 0 1 1 0 1h-1.97c.1 1.99.87 3.85 2.16 5.34h.01a.5.5 0 0 1 .06.08l.03.03 1.4-1.4a.5.5 0 0 1 .7.7l-1.4 1.4.34.29h5.12v-1.49a.5.5 0 1 1 .99 0v1.49h5.11l.34-.3-1.39-1.38a.5.5 0 1 1 .7-.7l1.4 1.39a8.85 8.85 0 0 0 2.25-5.46zm-6.02-3c-.2.57-1.24 3.42-1.87 4.04a1.97 1.97 0 0 1-2.8 0 1.97 1.97 0 0 1 0-2.8c.63-.63 3.47-1.67 4.04-1.87a.5.5 0 0 1 .63.64zm-1.31.68c-1.16.45-2.4 1-2.66 1.26a.98.98 0 0 0 0 1.4.99.99 0 0 0 1.4 0c.27-.26.8-1.5 1.26-2.66zm-12.54 2.67a1.58 1.58 0 0 1-1.58 1.59c-.43 0-.82-.17-1.12-.47-.47-.46-1.2-2.42-1.4-3a.5.5 0 0 1 .63-.64c.59.21 2.54.93 3.01 1.4.3.3.46.7.46 1.12zm-.99 0a.6.6 0 0 0-.17-.42 8.12 8.12 0 0 0-1.62-.78c.31.79.63 1.48.78 1.62a.6.6 0 0 0 .84 0 .6.6 0 0 0 .17-.42z"/></defs><g><g transform="translate(-994 -3917)"><use xlink:href="#sfrta"/><use fill="#fff" xlink:href="#sfrta"/></g></g></svg>