<svg xmlns="http://www.w3.org/2000/svg" xmlns:xlink="http://www.w3.org/1999/xlink" width="31" height="33" viewBox="0 0 31 33" fill="#fff"><defs><path id="8wfma" d="M1012.9 4130.59a3.26 3.26 0 0 1-3.24 3.24 3.26 3.26 0 0 1-3.25-3.24 3.26 3.26 0 0 1 3.25-3.25 3.26 3.26 0 0 1 3.25 3.25zm-1.08 0c0-1.2-.97-2.17-2.16-2.17a2.17 2.17 0 0 0 0 4.33c1.19 0 2.16-.97 2.16-2.16zm-5.41-21.65a3.26 3.26 0 0 1 3.25-3.25 3.26 3.26 0 0 1 3.25 3.25 3.26 3.26 0 0 1-3.25 3.25 3.26 3.26 0 0 1-3.25-3.25zm1.08 0a2.17 2.17 0 0 0 4.33 0c0-1.19-.97-2.16-2.16-2.16-1.2 0-2.17.97-2.17 2.16zm16.73 17.59a.57.57 0 0 1-.49.27c-3.28-.1-5.82-1.83-7.58-3.59v6.3c0 3.57-2.92 6.49-6.5 6.49a6.51 6.51 0 0 1-6.49-6.31l-9.04-15.07a.49.49 0 0 1 0-.54c.11-.16.27-.27.49-.27h.27c1.95 0 3.9.54 5.63 1.52.22.1.32.38.27.6l-.43 1.67 1.62.38c.27.05.49.38.38.65l-.38 1.51 1.2.11v-10.23c0-3.57 2.91-6.5 6.49-6.5 3.57 0 6.5 2.93 6.5 6.5v.38l8.06 15.59c.1.16.05.38 0 .54zm-28.64-11.64l7.58 12.67v-6.23l-1.9-.16c-.16 0-.26-.1-.37-.22-.11-.1-.11-.27-.11-.43l.38-1.57-1.63-.38c-.16-.05-.27-.1-.32-.27-.05-.16-.1-.27-.05-.43l.43-1.84a10.32 10.32 0 0 0-4-1.14zm19.49-4.87a5.43 5.43 0 0 0-5.41-5.4 5.43 5.43 0 0 0-5.42 5.4v19.48a5.43 5.43 0 0 0 5.42 5.42 5.43 5.43 0 0 0 5.41-5.42zm7.74 15.59l-6.66-12.83v2l2.11 4.33c.11.27 0 .6-.27.7-.05 0-.1.06-.21.06-.22 0-.38-.1-.49-.32l-1.14-2.33v4.38c1.41 1.68 3.68 3.63 6.66 4zm-8.82-7.47v3.25c0 .32-.22.54-.54.54h-1.63v1.62c0 .33-.21.54-.54.54h-3.25c-.32 0-.54-.21-.54-.54v-1.62h-1.62c-.33 0-.54-.22-.54-.54v-3.25c0-.32.21-.54.54-.54h1.62v-1.62c0-.33.22-.55.54-.55h3.25c.33 0 .54.22.54.55v1.62h1.63c.32 0 .54.22.54.54zm-1.08.54h-1.63c-.32 0-.54-.21-.54-.54v-1.62h-2.17v1.62c0 .33-.21.54-.54.54h-1.62v2.17h1.62c.33 0 .54.21.54.54v1.62h2.17v-1.62c0-.33.22-.54.54-.54h1.63z"/></defs><g><g transform="translate(-994 -4103)"><use xlink:href="#8wfma"/><use fill="#fff" xlink:href="#8wfma"/></g></g></svg>