<svg xmlns="http://www.w3.org/2000/svg" xmlns:xlink="http://www.w3.org/1999/xlink" width="31" height="18" viewBox="0 0 31 18" fill="#fff"><defs><path id="6ga5a" d="M434.45 3930.3a.57.57 0 0 1-.42.95.57.57 0 0 1-.4-.16 5.98 5.98 0 0 1 .12-8.31.57.57 0 0 1 .7.9 4.84 4.84 0 0 0 0 6.62zm-2.77 3.04a.57.57 0 0 1-.79-.17 9.03 9.03 0 0 1 .13-12.43.57.57 0 0 1 .7.9 7.9 7.9 0 0 0 .12 10.92c.17.26.1.61-.16.78zm-2.69 1.35a.57.57 0 0 1-.42.94.57.57 0 0 1-.4-.14 12.39 12.39 0 0 1 .12-17.07.57.57 0 1 1 .7.9 11.25 11.25 0 0 0 0 15.37zm16.82-3.59a.57.57 0 0 1-.8 0 .57.57 0 0 1-.03-.8 4.84 4.84 0 0 0-.13-6.76.57.57 0 0 1 .96-.61 5.98 5.98 0 0 1 0 8.17zm2.71 2.07a.57.57 0 0 1-.8 0 .57.57 0 0 1-.02-.8 7.9 7.9 0 0 0 0-10.78.57.57 0 0 1 .82-.76 9.03 9.03 0 0 1 0 12.34zm2.73 2.28a11.25 11.25 0 0 0-.95-16.32.57.57 0 1 1 .95-.62 12.39 12.39 0 0 1 0 16.94zm-12.3-3.25v-1.6a3.67 3.67 0 1 1 1.13 0v1.6zm.57-2.67a2.54 2.54 0 1 0 0-5.08 2.54 2.54 0 0 0 0 5.08z"/></defs><g><g opacity=".9" transform="translate(-424 -3918)"><use xlink:href="#6ga5a"/><use fill="#fff" xlink:href="#6ga5a"/></g></g></svg>