<svg xmlns="http://www.w3.org/2000/svg" xmlns:xlink="http://www.w3.org/1999/xlink" width="16" height="16" viewBox="0 0 16 16"><defs><path id="ksq3a" d="M1313 754h-14a1 1 0 0 1-1-1v-3c0-1.86 1.65-3.47 4.07-4.33a3.98 3.98 0 0 1-.07-.67v-3a4 4 0 0 1 8 0v3a4 4 0 0 1-.07.67c2.42.86 4.07 2.47 4.07 4.33v3a1 1 0 0 1-1 1zm-5-12a2 2 0 0 0-4 0v3a2 2 0 0 0 4 0zm4 8c0-1.08-1.15-2.02-2.86-2.55a3.98 3.98 0 0 1-6.28 0c-1.7.53-2.86 1.47-2.86 2.55v2h12z"/></defs><g><g transform="translate(-1298 -738)"><use fill="#b3b3b3" xlink:href="#ksq3a"/></g></g></svg>