<svg xmlns="http://www.w3.org/2000/svg" xmlns:xlink="http://www.w3.org/1999/xlink" width="31" height="26" viewBox="0 0 31 26" fill="#fff"><defs><path id="4n9ya" d="M1009.8 4302.24a.56.56 0 0 1-.8.06l-1.69-1.71a.56.56 0 1 1 .8-.79l1.7 1.71c.17.21.17.52-.01.73zm14.29-1.56l-1.71 1.7a.56.56 0 1 1-.8-.8l1.72-1.7a.56.56 0 1 1 .79.8zm-10.56-.48a.56.56 0 0 1-.67-.43l-.62-2.33-.01-.05a.56.56 0 0 1 1.1-.23l.62 2.33v.04c.07.3-.12.6-.42.67zm9.91 15.65a6.1 6.1 0 0 1-6.1 6.08h-16.12a4.9 4.9 0 0 1-.3-9.77v-.29a7.3 7.3 0 0 1 9.25-7.05 6.43 6.43 0 0 1 7.97-2.79l.02.01a6.43 6.43 0 0 1 3.26 9l-.1.17.34.31a6.1 6.1 0 0 1 1.78 4.33zm-12.22-10.62c.49.22.94.49 1.36.8a3.71 3.71 0 0 1 4.54-1.47.56.56 0 0 1-.42 1.04 2.61 2.61 0 0 0-3.25 1.2 7.3 7.3 0 0 1 1.85 3.3 6.1 6.1 0 0 1 5.12.47v-.05a5.31 5.31 0 0 0-9.2-5.3zm10.98 9.45a4.97 4.97 0 0 0-7.08-3.3.56.56 0 0 1-.8-.42 6.17 6.17 0 0 0-12.27.9v.4a7 7 0 0 0 .04.5.56.56 0 0 1-.6.52h-.25a3.77 3.77 0 0 0 0 7.53h16.1a4.98 4.98 0 0 0 4.85-6.13zm4.53-8.78l-2.33.62a.56.56 0 0 1-.28-1.09l2.33-.62a.56.56 0 0 1 .28 1.09zm.36 5.47c-.08.3-.4.47-.7.39l-2.32-.64a.56.56 0 0 1 .31-1.08l2.33.64c.3.08.47.4.38.7zm-7.91-13.9l-.62 2.33v.01c-.09.3-.4.47-.7.38h-.02a.56.56 0 0 1-.37-.7l.63-2.32a.56.56 0 1 1 1.08.3z"/></defs><g><g transform="translate(-996 -4296)"><use xlink:href="#4n9ya"/><use fill="#fff" xlink:href="#4n9ya"/></g></g></svg>